<svg width="476" height="130" viewBox="0 0 476 130" fill="none" xmlns="http://www.w3.org/2000/svg">
<g clip-path="url(#clip0_1_320)">
<path d="M13.2101 104.38C14.0501 103.75 15.0101 103.25 16.0501 102.92C14.9701 102.98 13.9301 103.47 13.2101 104.38Z" fill="#EE4E9C"/>
<path d="M43.87 94.12C39.04 92.31 34.57 89.67 33 84.45C22.94 96.48 13.65 87.35 4.14003 99.25C-5.05997 110.95 1.77003 129.74 17.98 129.56C23.71 129.42 28.58 128.12 34.21 121.64C42.9 111.29 32.91 103.86 43.88 94.12H43.87ZM24.27 118.84C14.58 124.56 3.87003 111.73 13.21 104.38C23.25 96.92 35.67 111.43 24.27 118.84Z" fill="#EE4E9C"/>
<path d="M122.22 13.99C121.86 12.71 120.21 12.36 119.4 13.41L109.85 25.7C108.53 27.4 106.08 27.71 104.37 26.39L96.63 20.37C94.93 19.05 94.62 16.6 95.94 14.89L105.23 2.95C106.16 1.75 105.32 0 103.81 0C98.12 0 92.49 2.54 88.73 7.38C85.44 11.61 84.21 16.8 84.89 21.72C85.55 26.52 83.8 31.34 80.38 34.77L75.29 39.86C76.42 40.37 77.56 40.9 78.73 41.43C81.46 42.61 83.61 44.75 84.79 47.48C85.15 48.26 85.51 49.04 85.87 49.82L92.16 43.53C95.47 40.22 99.94 38.39 104.62 38.2C110.04 37.98 115.33 35.46 118.92 30.84C122.78 25.88 123.8 19.61 122.24 13.99H122.22Z" fill="#EE4E9C"/>
<path d="M106.39 110.7C105.18 108.07 103.95 105.43 102.71 102.79C99.39 95.73 96.1 88.66 92.82 81.59C88.73 72.76 84.65 63.93 80.59 55.08C79.86 53.49 79.12 51.9 78.39 50.3C77.92 49.18 77.03 48.29 75.91 47.82C73.94 46.92 71.98 46.02 70.01 45.12C65.34 42.98 60.68 40.84 56.01 38.65C43.28 32.74 30.54 26.83 17.8 20.93C16.84 20.48 15.86 20.05 14.9 19.61C14.61 19.47 14.3 19.4 14 19.4C13.46 19.4 12.93 19.62 12.54 20.02C11.87 20.6 11.66 21.55 12.02 22.37C12.2 22.83 12.39 23.29 12.6 23.74C16.54 32.25 20.48 40.74 24.42 49.22C29.05 59.2 33.68 69.19 38.3 79.18C38.95 80.58 39.59 81.97 40.24 83.37C40.64 84.44 41.45 85.3 42.48 85.78C44.72 86.78 46.95 87.81 49.17 88.84C50.93 89.66 52.69 90.48 54.45 91.3L99.81 112.29C101.16 112.92 102.5 113.59 103.89 114.11C104.17 114.22 104.45 114.27 104.71 114.27C105.87 114.27 106.81 113.3 106.81 111.82C106.72 111.58 106.59 111.11 106.41 110.7H106.39ZM59.87 76.19C59.71 76.2 59.54 76.22 59.38 76.23C59.33 76.23 59.28 76.23 59.23 76.23C54.55 76.23 50.23 72.11 49.9 67.57C49.88 67.36 49.87 67.14 49.87 66.92C49.99 61.79 54.11 57.66 59.24 57.53C64.46 57.6 68.69 61.8 68.78 67.02C68.56 71.91 64.71 75.82 59.87 76.19Z" fill="#40D1A0"/>
<path d="M71.2701 107.49C68.1401 105.99 64.9501 104.6 61.8501 103.05C60.2801 102.19 58.3701 102.19 56.8001 103.05C53.7501 104.53 50.6401 105.92 47.5701 107.39C45.3901 108.44 45.2001 108.9 46.0101 111.21C47.1801 114.56 48.3601 117.88 49.5701 121.19C50.1701 122.83 50.8001 123.29 52.6001 123.29H59.4301C61.6301 123.29 63.8401 123.28 66.0501 123.31C67.4601 123.31 68.4301 122.88 68.9401 121.37C70.1201 117.89 71.4801 114.47 72.7201 111.01C73.4501 108.96 73.1901 108.38 71.2801 107.47L71.2701 107.49Z" fill="#4573DF"/>
<path d="M47.43 26.31C50.89 27.94 54.37 29.49 57.84 31.06C58.73 31.52 59.79 31.54 60.7 31.1C64.3 29.47 67.92 27.84 71.5 26.14C72.93 25.49 73.37 24.51 72.86 23.04C71.57 19.37 70.19 15.74 68.85 12.09C68.54 11.03 67.52 10.33 66.42 10.45C64.14 10.48 61.87 10.45 59.59 10.45C57.31 10.45 54.89 10.49 52.55 10.45C51.23 10.3 49.99 11.12 49.63 12.4C48.39 15.86 47.15 19.31 45.91 22.78C45.25 24.68 45.57 25.44 47.44 26.32L47.43 26.31Z" fill="#4573DF"/>
<path d="M113.9 57.2299C110.44 55.9899 106.99 54.7199 103.52 53.5099C101.56 52.8199 100.78 53.1199 99.9301 54.9299C98.3001 58.3899 96.7601 61.8899 95.1301 65.3499C94.6401 66.3099 94.6401 67.4399 95.1301 68.3999C96.7601 71.8599 98.3101 75.3499 99.9301 78.8099C100.79 80.6199 101.59 80.9599 103.5 80.2699C106.96 79.0299 110.41 77.7399 113.84 76.4299C115.63 75.7499 115.74 75.5699 115.74 73.6199V66.9999C115.74 64.6499 115.67 62.2999 115.75 59.9599C115.91 58.7099 115.11 57.5399 113.89 57.2399L113.9 57.2299Z" fill="#4573DF"/>
<path d="M4.39002 76.3299C7.98001 77.6299 11.55 78.9899 15.15 80.2699C17.07 80.9499 17.82 80.6299 18.7 78.7699C20.36 75.3099 21.96 71.8399 23.47 68.3299C23.83 67.4999 23.88 66.5699 23.6 65.7099C21.95 61.8699 20.12 58.1099 18.38 54.3199C18.09 53.5599 17.33 53.0899 16.52 53.1799C16.31 53.1799 16.1 53.1899 15.9 53.2399C11.95 54.6499 8.02002 56.0599 4.11002 57.5299C3.29002 57.8499 2.78002 58.6799 2.87002 59.5599V74.0799C2.76002 75.1099 3.41002 76.0699 4.40002 76.3499L4.39002 76.3299Z" fill="#4573DF"/>
<path d="M204.56 63.67C205.03 64.11 205.26 64.69 205.26 65.4C205.26 66.11 205.03 66.68 204.56 67.09C204.09 67.5 203.5 67.71 202.79 67.71H185.76V118.14C185.76 118.85 185.51 119.44 185.02 119.91C184.53 120.38 183.92 120.61 183.21 120.61C182.44 120.61 181.82 120.38 181.36 119.91C180.89 119.44 180.66 118.85 180.66 118.14V67.71H163.63C162.92 67.71 162.33 67.49 161.86 67.05C161.39 66.61 161.16 66.04 161.16 65.32C161.16 64.66 161.39 64.11 161.86 63.67C162.33 63.23 162.92 63.01 163.63 63.01H202.79C203.5 63.01 204.09 63.23 204.56 63.67Z" fill="#4573DF"/>
<path d="M255.52 107.02C253.16 111.52 249.9 115.04 245.73 117.59C241.56 120.14 236.82 121.42 231.5 121.42C226.18 121.42 221.43 120.15 217.27 117.59C213.1 115.04 209.84 111.52 207.48 107.02C205.12 102.52 203.94 97.4499 203.94 91.7999C203.94 86.1499 205.12 80.9999 207.48 76.4999C209.84 71.9999 213.1 68.4899 217.27 65.9699C221.44 63.4499 226.18 62.1899 231.5 62.1899C236.82 62.1899 241.56 63.4499 245.73 65.9699C249.9 68.4899 253.16 71.9999 255.52 76.4999C257.88 80.9999 259.06 86.0999 259.06 91.7999C259.06 97.4999 257.88 102.52 255.52 107.02ZM250.96 79.0099C249.07 75.2499 246.44 72.3299 243.06 70.2499C239.69 68.1699 235.83 67.1199 231.5 67.1199C227.17 67.1199 223.31 68.1599 219.94 70.2499C216.57 72.3299 213.94 75.2499 212.04 79.0099C210.15 82.7699 209.2 87.0299 209.2 91.7999C209.2 96.5699 210.15 100.84 212.04 104.59C213.93 108.35 216.56 111.27 219.94 113.35C223.31 115.43 227.17 116.48 231.5 116.48C235.83 116.48 239.68 115.44 243.06 113.35C246.43 111.27 249.07 108.35 250.96 104.59C252.85 100.83 253.8 96.5699 253.8 91.7999C253.8 87.0299 252.85 82.7599 250.96 79.0099Z" fill="#4573DF"/>
<path d="M316.32 107.02C313.96 111.52 310.7 115.04 306.53 117.59C302.36 120.14 297.62 121.42 292.3 121.42C286.98 121.42 282.23 120.15 278.07 117.59C273.9 115.04 270.64 111.52 268.28 107.02C265.92 102.52 264.74 97.4499 264.74 91.7999C264.74 86.1499 265.92 80.9999 268.28 76.4999C270.64 71.9999 273.9 68.4899 278.07 65.9699C282.24 63.4499 286.98 62.1899 292.3 62.1899C297.62 62.1899 302.36 63.4499 306.53 65.9699C310.7 68.4899 313.96 71.9999 316.32 76.4999C318.68 80.9999 319.86 86.0999 319.86 91.7999C319.86 97.4999 318.68 102.52 316.32 107.02ZM311.75 79.0099C309.86 75.2499 307.23 72.3299 303.85 70.2499C300.48 68.1699 296.62 67.1199 292.29 67.1199C287.96 67.1199 284.1 68.1599 280.73 70.2499C277.36 72.3299 274.73 75.2499 272.83 79.0099C270.94 82.7699 269.99 87.0299 269.99 91.7999C269.99 96.5699 270.94 100.84 272.83 104.59C274.72 108.35 277.35 111.27 280.73 113.35C284.1 115.43 287.96 116.48 292.29 116.48C296.62 116.48 300.47 115.44 303.85 113.35C307.22 111.27 309.86 108.35 311.75 104.59C313.64 100.83 314.59 96.5699 314.59 91.7999C314.59 87.0299 313.64 82.7599 311.75 79.0099Z" fill="#4573DF"/>
<path d="M360.2 116.4C360.67 116.84 360.9 117.42 360.9 118.13C360.9 118.84 360.67 119.43 360.2 119.9C359.73 120.37 359.14 120.6 358.43 120.6H329.06C328.35 120.6 327.76 120.37 327.29 119.9C326.82 119.43 326.59 118.84 326.59 118.13V65.48C326.59 64.77 326.84 64.18 327.33 63.71C327.82 63.24 328.45 63.01 329.22 63.01C329.93 63.01 330.54 63.24 331.03 63.71C331.52 64.18 331.77 64.77 331.77 65.48V115.74H358.42C359.13 115.74 359.72 115.96 360.19 116.4H360.2Z" fill="#4573DF"/>
<path d="M412.15 118.29C412.15 119.11 411.86 119.76 411.29 120.22C410.71 120.68 410.07 120.92 409.36 120.92C408.65 120.92 408.04 120.62 407.55 120.01L384.6 91.13L373.41 101.66V118.03C373.35 118.8 373.08 119.41 372.59 119.88C372.1 120.35 371.49 120.58 370.78 120.58C370.01 120.58 369.39 120.35 368.93 119.88C368.46 119.41 368.23 118.8 368.23 118.03V65.54C368.23 64.77 368.48 64.16 368.97 63.69C369.46 63.22 370.09 62.99 370.86 62.99C371.63 62.99 372.24 63.22 372.71 63.69C373.17 64.16 373.41 64.77 373.41 65.54V95.4L406.64 63.97C407.13 63.42 407.74 63.15 408.45 63.15C409.11 63.15 409.67 63.4 410.14 63.89C410.61 64.38 410.84 64.93 410.84 65.54C410.84 66.2 410.59 66.77 410.1 67.27L388.55 87.43L411.58 116.55C411.96 117.1 412.16 117.67 412.16 118.28L412.15 118.29Z" fill="#4573DF"/>
<path d="M423.34 119.86C422.85 120.35 422.24 120.6 421.53 120.6C420.76 120.6 420.14 120.37 419.68 119.9C419.21 119.43 418.98 118.82 418.98 118.05V65.56C418.98 64.79 419.23 64.18 419.72 63.71C420.21 63.24 420.84 63.01 421.61 63.01C422.32 63.01 422.93 63.26 423.42 63.75C423.91 64.24 424.16 64.85 424.16 65.56V118.05C424.1 118.76 423.83 119.37 423.34 119.86Z" fill="#4573DF"/>
<path d="M474.8 63.67C475.27 64.11 475.5 64.69 475.5 65.4C475.5 66.11 475.27 66.68 474.8 67.09C474.33 67.5 473.74 67.71 473.03 67.71H456V118.14C456 118.85 455.75 119.44 455.26 119.91C454.77 120.38 454.16 120.61 453.45 120.61C452.68 120.61 452.06 120.38 451.6 119.91C451.13 119.44 450.9 118.85 450.9 118.14V67.71H433.87C433.16 67.71 432.57 67.49 432.1 67.05C431.63 66.61 431.4 66.04 431.4 65.32C431.4 64.66 431.63 64.11 432.1 63.67C432.57 63.23 433.16 63.01 433.87 63.01H473.03C473.74 63.01 474.33 63.23 474.8 63.67Z" fill="#4573DF"/>
<path d="M204.81 14.96C205.36 15.51 205.63 16.17 205.63 16.94C205.63 17.71 205.35 18.37 204.81 18.92C204.27 19.47 203.6 19.74 202.83 19.74C202.06 19.74 201.4 19.47 200.85 18.92C200.3 18.37 200.03 17.71 200.03 16.94C200.03 16.17 200.3 15.51 200.85 14.96C201.4 14.41 202.06 14.14 202.83 14.14C203.6 14.14 204.26 14.41 204.81 14.96ZM204.81 22.44C205.36 22.99 205.63 23.65 205.63 24.42C205.63 25.19 205.35 25.85 204.81 26.4C204.27 26.95 203.6 27.22 202.83 27.22C202.06 27.22 201.4 26.95 200.85 26.4C200.3 25.85 200.03 25.19 200.03 24.42C200.03 23.65 200.3 22.99 200.85 22.44C201.4 21.89 202.06 21.62 202.83 21.62C203.6 21.62 204.26 21.89 204.81 22.44ZM204.81 29.92C205.36 30.47 205.63 31.13 205.63 31.9C205.63 32.67 205.35 33.33 204.81 33.88C204.27 34.43 203.6 34.7 202.83 34.7C202.06 34.7 201.4 34.43 200.85 33.88C200.3 33.33 200.03 32.67 200.03 31.9C200.03 31.13 200.3 30.47 200.85 29.92C201.4 29.37 202.06 29.1 202.83 29.1C203.6 29.1 204.26 29.37 204.81 29.92ZM204.81 37.4C205.36 37.95 205.63 38.61 205.63 39.38C205.63 40.15 205.35 40.81 204.81 41.36C204.27 41.91 203.6 42.18 202.83 42.18C202.06 42.18 201.4 41.91 200.85 41.36C200.3 40.81 200.03 40.15 200.03 39.38C200.03 38.61 200.3 37.95 200.85 37.4C201.4 36.85 202.06 36.58 202.83 36.58C203.6 36.58 204.26 36.85 204.81 37.4ZM204.81 44.87C205.36 45.42 205.63 46.08 205.63 46.85C205.63 47.62 205.35 48.28 204.81 48.83C204.26 49.38 203.6 49.65 202.83 49.65C202.06 49.65 201.4 49.38 200.85 48.83C200.3 48.28 200.03 47.62 200.03 46.85C200.03 46.08 200.3 45.42 200.85 44.87C201.4 44.32 202.06 44.05 202.83 44.05C203.6 44.05 204.26 44.33 204.81 44.87ZM202.83 14.36C202.11 14.36 201.5 14.61 201 15.11C200.5 15.61 200.25 16.22 200.25 16.94C200.25 17.66 200.5 18.27 201 18.77C201.5 19.27 202.11 19.52 202.83 19.52C203.55 19.52 204.16 19.27 204.66 18.77C205.16 18.27 205.41 17.66 205.41 16.94C205.41 16.22 205.16 15.61 204.66 15.11C204.16 14.61 203.55 14.36 202.83 14.36ZM202.83 21.84C202.11 21.84 201.5 22.09 201 22.59C200.5 23.09 200.25 23.7 200.25 24.42C200.25 25.14 200.5 25.75 201 26.25C201.5 26.75 202.11 27 202.83 27C203.55 27 204.16 26.75 204.66 26.25C205.16 25.75 205.41 25.14 205.41 24.42C205.41 23.7 205.16 23.09 204.66 22.59C204.16 22.09 203.55 21.84 202.83 21.84ZM202.83 29.32C202.11 29.32 201.5 29.57 201 30.07C200.5 30.57 200.25 31.18 200.25 31.9C200.25 32.62 200.5 33.23 201 33.73C201.5 34.23 202.11 34.48 202.83 34.48C203.55 34.48 204.16 34.23 204.66 33.73C205.16 33.23 205.41 32.62 205.41 31.9C205.41 31.18 205.16 30.57 204.66 30.07C204.16 29.57 203.55 29.32 202.83 29.32ZM202.83 36.8C202.11 36.8 201.5 37.05 201 37.55C200.5 38.05 200.25 38.66 200.25 39.38C200.25 40.1 200.5 40.71 201 41.21C201.5 41.71 202.11 41.96 202.83 41.96C203.55 41.96 204.16 41.71 204.66 41.21C205.16 40.71 205.41 40.1 205.41 39.38C205.41 38.66 205.16 38.05 204.66 37.55C204.16 37.05 203.55 36.8 202.83 36.8ZM202.83 44.28C202.11 44.28 201.5 44.53 201 45.03C200.5 45.53 200.25 46.14 200.25 46.86C200.25 47.58 200.5 48.19 201 48.69C201.5 49.19 202.11 49.44 202.83 49.44C203.55 49.44 204.16 49.19 204.66 48.69C205.16 48.19 205.41 47.58 205.41 46.86C205.41 46.14 205.16 45.53 204.66 45.03C204.16 44.53 203.55 44.28 202.83 44.28ZM204.49 15.28C204.95 15.74 205.18 16.3 205.18 16.94C205.18 17.58 204.95 18.14 204.49 18.58C204.03 19.03 203.47 19.25 202.83 19.25C202.19 19.25 201.63 19.03 201.18 18.58C200.73 18.13 200.51 17.58 200.51 16.94C200.51 16.3 200.73 15.74 201.18 15.28C201.63 14.82 202.18 14.59 202.83 14.59C203.48 14.59 204.03 14.82 204.49 15.28ZM204.49 22.76C204.95 23.22 205.18 23.78 205.18 24.42C205.18 25.06 204.95 25.62 204.49 26.07C204.03 26.52 203.47 26.74 202.83 26.74C202.19 26.74 201.63 26.52 201.18 26.07C200.73 25.62 200.51 25.07 200.51 24.42C200.51 23.77 200.73 23.22 201.18 22.76C201.63 22.3 202.18 22.07 202.83 22.07C203.48 22.07 204.03 22.3 204.49 22.76ZM204.49 30.24C204.95 30.7 205.18 31.26 205.18 31.9C205.18 32.54 204.95 33.1 204.49 33.55C204.03 34 203.47 34.22 202.83 34.22C202.19 34.22 201.63 34 201.18 33.55C200.73 33.1 200.51 32.55 200.51 31.9C200.51 31.25 200.73 30.7 201.18 30.24C201.63 29.78 202.18 29.55 202.83 29.55C203.48 29.55 204.03 29.78 204.49 30.24ZM204.49 37.71C204.95 38.17 205.18 38.73 205.18 39.37C205.18 40.01 204.95 40.57 204.49 41.02C204.03 41.47 203.47 41.69 202.83 41.69C202.19 41.69 201.63 41.47 201.18 41.02C200.73 40.57 200.51 40.02 200.51 39.37C200.51 38.72 200.73 38.17 201.18 37.71C201.63 37.25 202.18 37.02 202.83 37.02C203.48 37.02 204.03 37.25 204.49 37.71ZM204.49 45.19C204.95 45.65 205.18 46.21 205.18 46.85C205.18 47.49 204.95 48.05 204.49 48.5C204.03 48.95 203.47 49.17 202.83 49.17C202.19 49.17 201.63 48.95 201.18 48.5C200.73 48.05 200.51 47.5 200.51 46.85C200.51 46.2 200.73 45.65 201.18 45.19C201.63 44.73 202.18 44.5 202.83 44.5C203.48 44.5 204.03 44.73 204.49 45.19ZM212.29 14.96C212.84 15.51 213.11 16.17 213.11 16.94C213.11 17.71 212.84 18.37 212.29 18.92C211.74 19.47 211.08 19.74 210.31 19.74C209.54 19.74 208.88 19.47 208.33 18.92C207.78 18.37 207.51 17.71 207.51 16.94C207.51 16.17 207.78 15.51 208.33 14.96C208.88 14.41 209.54 14.14 210.31 14.14C211.08 14.14 211.74 14.41 212.29 14.96ZM210.31 14.36C209.59 14.36 208.98 14.61 208.48 15.11C207.98 15.61 207.73 16.22 207.73 16.94C207.73 17.66 207.98 18.27 208.48 18.77C208.98 19.27 209.59 19.52 210.31 19.52C211.03 19.52 211.64 19.27 212.14 18.77C212.64 18.27 212.89 17.66 212.89 16.94C212.89 16.22 212.64 15.61 212.14 15.11C211.64 14.61 211.03 14.36 210.31 14.36ZM211.97 15.28C212.43 15.74 212.66 16.3 212.66 16.94C212.66 17.58 212.43 18.14 211.97 18.58C211.51 19.03 210.95 19.25 210.31 19.25C209.67 19.25 209.11 19.03 208.66 18.58C208.21 18.13 207.99 17.58 207.99 16.94C207.99 16.3 208.21 15.74 208.66 15.28C209.11 14.82 209.66 14.59 210.31 14.59C210.96 14.59 211.51 14.82 211.97 15.28ZM219.77 16.83C220.32 17.38 220.59 18.04 220.59 18.81C220.59 19.58 220.32 20.24 219.77 20.79C219.22 21.34 218.56 21.61 217.79 21.61C217.02 21.61 216.36 21.34 215.81 20.79C215.26 20.24 214.99 19.58 214.99 18.81C214.99 18.04 215.26 17.38 215.81 16.83C216.36 16.28 217.02 16.01 217.79 16.01C218.56 16.01 219.22 16.29 219.77 16.83ZM217.79 16.23C217.07 16.23 216.46 16.48 215.96 16.98C215.46 17.48 215.21 18.09 215.21 18.81C215.21 19.53 215.46 20.14 215.96 20.64C216.46 21.14 217.07 21.39 217.79 21.39C218.51 21.39 219.12 21.14 219.62 20.64C220.12 20.14 220.37 19.53 220.37 18.81C220.37 18.09 220.12 17.48 219.62 16.98C219.12 16.48 218.51 16.23 217.79 16.23ZM219.45 17.15C219.91 17.61 220.14 18.17 220.14 18.81C220.14 19.45 219.91 20.01 219.45 20.46C218.99 20.91 218.43 21.13 217.79 21.13C217.15 21.13 216.59 20.91 216.14 20.46C215.69 20.01 215.47 19.46 215.47 18.81C215.47 18.16 215.69 17.61 216.14 17.15C216.59 16.69 217.14 16.46 217.79 16.46C218.44 16.46 218.99 16.69 219.45 17.15ZM225.38 22.44C225.93 22.99 226.2 23.65 226.2 24.42C226.2 25.19 225.93 25.85 225.38 26.4C224.83 26.95 224.17 27.22 223.4 27.22C222.63 27.22 221.97 26.95 221.42 26.4C220.87 25.85 220.6 25.19 220.6 24.42C220.6 23.65 220.87 22.99 221.42 22.44C221.97 21.89 222.63 21.62 223.4 21.62C224.17 21.62 224.83 21.89 225.38 22.44ZM223.4 21.84C222.68 21.84 222.07 22.09 221.57 22.59C221.07 23.09 220.82 23.7 220.82 24.42C220.82 25.14 221.07 25.75 221.57 26.25C222.07 26.75 222.68 27 223.4 27C224.12 27 224.73 26.75 225.23 26.25C225.73 25.75 225.98 25.14 225.98 24.42C225.98 23.7 225.73 23.09 225.23 22.59C224.73 22.09 224.12 21.84 223.4 21.84ZM225.06 22.76C225.52 23.22 225.75 23.78 225.75 24.42C225.75 25.06 225.52 25.62 225.06 26.07C224.6 26.52 224.04 26.74 223.4 26.74C222.76 26.74 222.2 26.52 221.75 26.07C221.3 25.62 221.08 25.07 221.08 24.42C221.08 23.77 221.3 23.22 221.75 22.76C222.2 22.3 222.75 22.07 223.4 22.07C224.05 22.07 224.6 22.3 225.06 22.76ZM229.12 29.92C229.67 30.47 229.94 31.13 229.94 31.9C229.94 32.67 229.66 33.33 229.12 33.88C228.58 34.43 227.91 34.7 227.14 34.7C226.37 34.7 225.71 34.43 225.16 33.88C224.61 33.33 224.34 32.67 224.34 31.9C224.34 31.13 224.61 30.47 225.16 29.92C225.71 29.37 226.37 29.1 227.14 29.1C227.91 29.1 228.57 29.37 229.12 29.92ZM229.12 37.4C229.67 37.95 229.94 38.61 229.94 39.38C229.94 40.15 229.66 40.81 229.12 41.36C228.58 41.91 227.91 42.18 227.14 42.18C226.37 42.18 225.71 41.91 225.16 41.36C224.61 40.81 224.34 40.15 224.34 39.38C224.34 38.61 224.61 37.95 225.16 37.4C225.71 36.85 226.37 36.58 227.14 36.58C227.91 36.58 228.57 36.85 229.12 37.4ZM229.12 44.87C229.67 45.42 229.94 46.08 229.94 46.85C229.94 47.62 229.66 48.28 229.12 48.83C228.57 49.38 227.91 49.65 227.14 49.65C226.37 49.65 225.71 49.38 225.16 48.83C224.61 48.28 224.34 47.62 224.34 46.85C224.34 46.08 224.61 45.42 225.16 44.87C225.71 44.32 226.37 44.05 227.14 44.05C227.91 44.05 228.57 44.33 229.12 44.87ZM227.13 29.32C226.41 29.32 225.8 29.57 225.3 30.07C224.8 30.57 224.55 31.18 224.55 31.9C224.55 32.62 224.8 33.23 225.3 33.73C225.8 34.23 226.41 34.48 227.13 34.48C227.85 34.48 228.46 34.23 228.96 33.73C229.46 33.23 229.71 32.62 229.71 31.9C229.71 31.18 229.46 30.57 228.96 30.07C228.46 29.57 227.85 29.32 227.13 29.32ZM227.13 36.8C226.41 36.8 225.8 37.05 225.3 37.55C224.8 38.05 224.55 38.66 224.55 39.38C224.55 40.1 224.8 40.71 225.3 41.21C225.8 41.71 226.41 41.96 227.13 41.96C227.85 41.96 228.46 41.71 228.96 41.21C229.46 40.71 229.71 40.1 229.71 39.38C229.71 38.66 229.46 38.05 228.96 37.55C228.46 37.05 227.85 36.8 227.13 36.8ZM227.13 44.28C226.41 44.28 225.8 44.53 225.3 45.03C224.8 45.53 224.55 46.14 224.55 46.86C224.55 47.58 224.8 48.19 225.3 48.69C225.8 49.19 226.41 49.44 227.13 49.44C227.85 49.44 228.46 49.19 228.96 48.69C229.46 48.19 229.71 47.58 229.71 46.86C229.71 46.14 229.46 45.53 228.96 45.03C228.46 44.53 227.85 44.28 227.13 44.28ZM228.8 30.24C229.26 30.7 229.49 31.26 229.49 31.9C229.49 32.54 229.26 33.1 228.8 33.55C228.34 34 227.78 34.22 227.14 34.22C226.5 34.22 225.94 34 225.49 33.55C225.04 33.1 224.82 32.55 224.82 31.9C224.82 31.25 225.04 30.7 225.49 30.24C225.94 29.78 226.49 29.55 227.14 29.55C227.79 29.55 228.34 29.78 228.8 30.24ZM228.8 37.71C229.26 38.17 229.49 38.73 229.49 39.37C229.49 40.01 229.26 40.57 228.8 41.02C228.34 41.47 227.78 41.69 227.14 41.69C226.5 41.69 225.94 41.47 225.49 41.02C225.04 40.57 224.82 40.02 224.82 39.37C224.82 38.72 225.04 38.17 225.49 37.71C225.94 37.25 226.49 37.02 227.14 37.02C227.79 37.02 228.34 37.25 228.8 37.71ZM228.8 45.19C229.26 45.65 229.49 46.21 229.49 46.85C229.49 47.49 229.26 48.05 228.8 48.5C228.34 48.95 227.78 49.17 227.14 49.17C226.5 49.17 225.94 48.95 225.49 48.5C225.04 48.05 224.82 47.5 224.82 46.85C224.82 46.2 225.04 45.65 225.49 45.19C225.94 44.73 226.49 44.5 227.14 44.5C227.79 44.5 228.34 44.73 228.8 45.19ZM232.86 14.96C233.41 15.51 233.68 16.17 233.68 16.94C233.68 17.71 233.4 18.37 232.86 18.92C232.32 19.47 231.65 19.74 230.88 19.74C230.11 19.74 229.45 19.47 228.9 18.92C228.35 18.37 228.08 17.71 228.08 16.94C228.08 16.17 228.35 15.51 228.9 14.96C229.45 14.41 230.11 14.14 230.88 14.14C231.65 14.14 232.31 14.41 232.86 14.96ZM230.87 14.36C230.15 14.36 229.54 14.61 229.04 15.11C228.54 15.61 228.29 16.22 228.29 16.94C228.29 17.66 228.54 18.27 229.04 18.77C229.54 19.27 230.15 19.52 230.87 19.52C231.59 19.52 232.2 19.27 232.7 18.77C233.2 18.27 233.45 17.66 233.45 16.94C233.45 16.22 233.2 15.61 232.7 15.11C232.2 14.61 231.59 14.36 230.87 14.36ZM232.54 15.28C233 15.74 233.23 16.3 233.23 16.94C233.23 17.58 233 18.14 232.54 18.58C232.08 19.03 231.52 19.25 230.88 19.25C230.24 19.25 229.68 19.03 229.23 18.58C228.78 18.13 228.56 17.58 228.56 16.94C228.56 16.3 228.78 15.74 229.23 15.28C229.68 14.82 230.23 14.59 230.88 14.59C231.53 14.59 232.08 14.82 232.54 15.28ZM240.33 16.83C240.88 17.38 241.15 18.04 241.15 18.81C241.15 19.58 240.88 20.24 240.33 20.79C239.78 21.34 239.12 21.61 238.35 21.61C237.58 21.61 236.92 21.34 236.37 20.79C235.82 20.24 235.55 19.58 235.55 18.81C235.55 18.04 235.82 17.38 236.37 16.83C236.92 16.28 237.58 16.01 238.35 16.01C239.12 16.01 239.78 16.29 240.33 16.83ZM238.35 16.23C237.63 16.23 237.02 16.48 236.52 16.98C236.02 17.48 235.77 18.09 235.77 18.81C235.77 19.53 236.02 20.14 236.52 20.64C237.02 21.14 237.63 21.39 238.35 21.39C239.07 21.39 239.68 21.14 240.18 20.64C240.68 20.14 240.93 19.53 240.93 18.81C240.93 18.09 240.68 17.48 240.18 16.98C239.68 16.48 239.07 16.23 238.35 16.23ZM240.02 17.15C240.48 17.61 240.71 18.17 240.71 18.81C240.71 19.45 240.48 20.01 240.02 20.46C239.56 20.91 239 21.13 238.36 21.13C237.72 21.13 237.16 20.91 236.71 20.46C236.26 20.01 236.04 19.46 236.04 18.81C236.04 18.16 236.26 17.61 236.71 17.15C237.16 16.69 237.71 16.46 238.36 16.46C239.01 16.46 239.56 16.69 240.02 17.15ZM245.94 22.44C246.49 22.99 246.76 23.65 246.76 24.42C246.76 25.19 246.49 25.85 245.94 26.4C245.39 26.95 244.73 27.22 243.96 27.22C243.19 27.22 242.53 26.95 241.98 26.4C241.43 25.85 241.16 25.19 241.16 24.42C241.16 23.65 241.43 22.99 241.98 22.44C242.53 21.89 243.19 21.62 243.96 21.62C244.73 21.62 245.39 21.89 245.94 22.44ZM243.96 21.84C243.24 21.84 242.63 22.09 242.13 22.59C241.63 23.09 241.38 23.7 241.38 24.42C241.38 25.14 241.63 25.75 242.13 26.25C242.63 26.75 243.24 27 243.96 27C244.68 27 245.29 26.75 245.79 26.25C246.29 25.75 246.54 25.14 246.54 24.42C246.54 23.7 246.29 23.09 245.79 22.59C245.29 22.09 244.68 21.84 243.96 21.84ZM245.62 22.76C246.08 23.22 246.31 23.78 246.31 24.42C246.31 25.06 246.08 25.62 245.62 26.07C245.16 26.52 244.6 26.74 243.96 26.74C243.32 26.74 242.76 26.52 242.31 26.07C241.86 25.62 241.64 25.07 241.64 24.42C241.64 23.77 241.86 23.22 242.31 22.76C242.76 22.3 243.31 22.07 243.96 22.07C244.61 22.07 245.16 22.3 245.62 22.76ZM249.68 29.92C250.23 30.47 250.5 31.13 250.5 31.9C250.5 32.67 250.23 33.33 249.68 33.88C249.13 34.43 248.47 34.7 247.7 34.7C246.93 34.7 246.27 34.43 245.72 33.88C245.17 33.33 244.9 32.67 244.9 31.9C244.9 31.13 245.17 30.47 245.72 29.92C246.27 29.37 246.93 29.1 247.7 29.1C248.47 29.1 249.13 29.37 249.68 29.92ZM249.68 37.4C250.23 37.95 250.5 38.61 250.5 39.38C250.5 40.15 250.23 40.81 249.68 41.36C249.13 41.91 248.47 42.18 247.7 42.18C246.93 42.18 246.27 41.91 245.72 41.36C245.17 40.81 244.9 40.15 244.9 39.38C244.9 38.61 245.17 37.95 245.72 37.4C246.27 36.85 246.93 36.58 247.7 36.58C248.47 36.58 249.13 36.85 249.68 37.4ZM249.68 44.87C250.23 45.42 250.5 46.08 250.5 46.85C250.5 47.62 250.23 48.28 249.68 48.83C249.13 49.38 248.47 49.65 247.7 49.65C246.93 49.65 246.27 49.38 245.72 48.83C245.17 48.28 244.9 47.62 244.9 46.85C244.9 46.08 245.17 45.42 245.72 44.87C246.27 44.32 246.93 44.05 247.7 44.05C248.47 44.05 249.13 44.33 249.68 44.87ZM247.7 29.32C246.98 29.32 246.37 29.57 245.87 30.07C245.37 30.57 245.12 31.18 245.12 31.9C245.12 32.62 245.37 33.23 245.87 33.73C246.37 34.23 246.98 34.48 247.7 34.48C248.42 34.48 249.03 34.23 249.53 33.73C250.03 33.23 250.28 32.62 250.28 31.9C250.28 31.18 250.03 30.57 249.53 30.07C249.03 29.57 248.42 29.32 247.7 29.32ZM247.7 36.8C246.98 36.8 246.37 37.05 245.87 37.55C245.37 38.05 245.12 38.66 245.12 39.38C245.12 40.1 245.37 40.71 245.87 41.21C246.37 41.71 246.98 41.96 247.7 41.96C248.42 41.96 249.03 41.71 249.53 41.21C250.03 40.71 250.28 40.1 250.28 39.38C250.28 38.66 250.03 38.05 249.53 37.55C249.03 37.05 248.42 36.8 247.7 36.8ZM247.7 44.28C246.98 44.28 246.37 44.53 245.87 45.03C245.37 45.53 245.12 46.14 245.12 46.86C245.12 47.58 245.37 48.19 245.87 48.69C246.37 49.19 246.98 49.44 247.7 49.44C248.42 49.44 249.03 49.19 249.53 48.69C250.03 48.19 250.28 47.58 250.28 46.86C250.28 46.14 250.03 45.53 249.53 45.03C249.03 44.53 248.42 44.28 247.7 44.28ZM249.36 30.24C249.82 30.7 250.05 31.26 250.05 31.9C250.05 32.54 249.82 33.1 249.36 33.55C248.9 34 248.34 34.22 247.7 34.22C247.06 34.22 246.5 34 246.05 33.55C245.6 33.1 245.38 32.55 245.38 31.9C245.38 31.25 245.6 30.7 246.05 30.24C246.5 29.78 247.05 29.55 247.7 29.55C248.35 29.55 248.9 29.78 249.36 30.24ZM249.36 37.71C249.82 38.17 250.05 38.73 250.05 39.37C250.05 40.01 249.82 40.57 249.36 41.02C248.9 41.47 248.34 41.69 247.7 41.69C247.06 41.69 246.5 41.47 246.05 41.02C245.6 40.57 245.38 40.02 245.38 39.37C245.38 38.72 245.6 38.17 246.05 37.71C246.5 37.25 247.05 37.02 247.7 37.02C248.35 37.02 248.9 37.25 249.36 37.71ZM249.36 45.19C249.82 45.65 250.05 46.21 250.05 46.85C250.05 47.49 249.82 48.05 249.36 48.5C248.9 48.95 248.34 49.17 247.7 49.17C247.06 49.17 246.5 48.95 246.05 48.5C245.6 48.05 245.38 47.5 245.38 46.85C245.38 46.2 245.6 45.65 246.05 45.19C246.5 44.73 247.05 44.5 247.7 44.5C248.35 44.5 248.9 44.73 249.36 45.19Z" fill="#EE4E9C"/>
<path d="M259.89 14.96C260.44 15.51 260.71 16.17 260.71 16.94C260.71 17.71 260.43 18.37 259.89 18.92C259.35 19.47 258.68 19.74 257.91 19.74C257.14 19.74 256.48 19.47 255.93 18.92C255.38 18.37 255.11 17.71 255.11 16.94C255.11 16.17 255.38 15.51 255.93 14.96C256.48 14.41 257.14 14.14 257.91 14.14C258.68 14.14 259.34 14.41 259.89 14.96ZM257.91 14.36C257.19 14.36 256.58 14.61 256.08 15.11C255.58 15.61 255.33 16.22 255.33 16.94C255.33 17.66 255.58 18.27 256.08 18.77C256.58 19.27 257.19 19.52 257.91 19.52C258.63 19.52 259.24 19.27 259.74 18.77C260.24 18.27 260.49 17.66 260.49 16.94C260.49 16.22 260.24 15.61 259.74 15.11C259.24 14.61 258.63 14.36 257.91 14.36ZM259.57 15.28C260.03 15.74 260.26 16.3 260.26 16.94C260.26 17.58 260.03 18.14 259.57 18.58C259.11 19.03 258.55 19.25 257.91 19.25C257.27 19.25 256.71 19.03 256.26 18.58C255.81 18.13 255.59 17.58 255.59 16.94C255.59 16.3 255.81 15.74 256.26 15.28C256.71 14.82 257.26 14.59 257.91 14.59C258.56 14.59 259.11 14.82 259.57 15.28ZM263.63 22.44C264.18 22.99 264.45 23.65 264.45 24.42C264.45 25.19 264.17 25.85 263.63 26.4C263.09 26.95 262.42 27.22 261.65 27.22C260.88 27.22 260.22 26.95 259.67 26.4C259.12 25.85 258.85 25.19 258.85 24.42C258.85 23.65 259.12 22.99 259.67 22.44C260.22 21.89 260.88 21.62 261.65 21.62C262.42 21.62 263.08 21.89 263.63 22.44ZM261.65 21.84C260.93 21.84 260.32 22.09 259.82 22.59C259.32 23.09 259.07 23.7 259.07 24.42C259.07 25.14 259.32 25.75 259.82 26.25C260.32 26.75 260.93 27 261.65 27C262.37 27 262.98 26.75 263.48 26.25C263.98 25.75 264.23 25.14 264.23 24.42C264.23 23.7 263.98 23.09 263.48 22.59C262.98 22.09 262.37 21.84 261.65 21.84ZM263.31 22.76C263.77 23.22 264 23.78 264 24.42C264 25.06 263.77 25.62 263.31 26.07C262.85 26.52 262.29 26.74 261.65 26.74C261.01 26.74 260.45 26.52 260 26.07C259.55 25.62 259.33 25.07 259.33 24.42C259.33 23.77 259.55 23.22 260 22.76C260.45 22.3 261 22.07 261.65 22.07C262.3 22.07 262.85 22.3 263.31 22.76ZM265.5 59.83C266.05 60.38 266.32 61.04 266.32 61.81C266.32 62.58 266.05 63.24 265.5 63.79C264.95 64.34 264.29 64.61 263.52 64.61C262.75 64.61 262.09 64.34 261.54 63.79C260.99 63.24 260.72 62.58 260.72 61.81C260.72 61.04 260.99 60.38 261.54 59.83C262.09 59.28 262.75 59.01 263.52 59.01C264.29 59.01 264.95 59.28 265.5 59.83ZM263.52 59.23C262.8 59.23 262.19 59.48 261.69 59.98C261.19 60.48 260.94 61.09 260.94 61.81C260.94 62.53 261.19 63.14 261.69 63.64C262.19 64.14 262.8 64.39 263.52 64.39C264.24 64.39 264.85 64.14 265.35 63.64C265.85 63.14 266.1 62.53 266.1 61.81C266.1 61.09 265.85 60.48 265.35 59.98C264.85 59.48 264.24 59.23 263.52 59.23ZM265.18 60.15C265.64 60.61 265.87 61.16 265.87 61.81C265.87 62.46 265.64 63.01 265.18 63.46C264.72 63.91 264.16 64.13 263.52 64.13C262.88 64.13 262.32 63.91 261.88 63.46C261.43 63.01 261.21 62.46 261.21 61.81C261.21 61.16 261.43 60.61 261.88 60.15C262.33 59.69 262.88 59.46 263.52 59.46C264.16 59.46 264.72 59.69 265.18 60.15ZM267.37 29.92C267.92 30.47 268.19 31.13 268.19 31.9C268.19 32.67 267.92 33.33 267.37 33.88C266.82 34.43 266.16 34.7 265.39 34.7C264.62 34.7 263.96 34.43 263.41 33.88C262.86 33.33 262.59 32.67 262.59 31.9C262.59 31.13 262.86 30.47 263.41 29.92C263.96 29.37 264.62 29.1 265.39 29.1C266.16 29.1 266.82 29.37 267.37 29.92ZM265.39 29.32C264.67 29.32 264.06 29.57 263.56 30.07C263.06 30.57 262.81 31.18 262.81 31.9C262.81 32.62 263.06 33.23 263.56 33.73C264.06 34.23 264.67 34.48 265.39 34.48C266.11 34.48 266.72 34.23 267.22 33.73C267.72 33.23 267.97 32.62 267.97 31.9C267.97 31.18 267.72 30.57 267.22 30.07C266.72 29.57 266.11 29.32 265.39 29.32ZM267.05 30.24C267.51 30.7 267.74 31.26 267.74 31.9C267.74 32.54 267.51 33.1 267.05 33.55C266.59 34 266.03 34.22 265.39 34.22C264.75 34.22 264.19 34 263.74 33.55C263.29 33.1 263.07 32.55 263.07 31.9C263.07 31.25 263.29 30.7 263.74 30.24C264.19 29.78 264.74 29.55 265.39 29.55C266.04 29.55 266.59 29.78 267.05 30.24ZM271.11 37.4C271.66 37.95 271.93 38.61 271.93 39.38C271.93 40.15 271.66 40.81 271.11 41.36C270.56 41.91 269.9 42.18 269.13 42.18C268.36 42.18 267.7 41.91 267.15 41.36C266.6 40.81 266.33 40.15 266.33 39.38C266.33 38.61 266.6 37.95 267.15 37.4C267.7 36.85 268.36 36.58 269.13 36.58C269.9 36.58 270.56 36.85 271.11 37.4ZM271.11 52.35C271.66 52.9 271.93 53.56 271.93 54.33C271.93 55.1 271.66 55.76 271.11 56.31C270.56 56.86 269.9 57.13 269.13 57.13C268.36 57.13 267.7 56.86 267.15 56.31C266.6 55.76 266.33 55.1 266.33 54.33C266.33 53.56 266.6 52.9 267.15 52.35C267.7 51.8 268.36 51.53 269.13 51.53C269.9 51.53 270.56 51.8 271.11 52.35ZM269.13 36.8C268.41 36.8 267.8 37.05 267.3 37.55C266.8 38.05 266.55 38.66 266.55 39.38C266.55 40.1 266.8 40.71 267.3 41.21C267.8 41.71 268.41 41.96 269.13 41.96C269.85 41.96 270.46 41.71 270.96 41.21C271.46 40.71 271.71 40.1 271.71 39.38C271.71 38.66 271.46 38.05 270.96 37.55C270.46 37.05 269.85 36.8 269.13 36.8ZM269.13 51.75C268.41 51.75 267.8 52 267.3 52.5C266.8 53 266.55 53.61 266.55 54.33C266.55 55.05 266.8 55.66 267.3 56.16C267.8 56.66 268.41 56.91 269.13 56.91C269.85 56.91 270.46 56.66 270.96 56.16C271.46 55.66 271.71 55.05 271.71 54.33C271.71 53.61 271.46 53 270.96 52.5C270.46 52 269.85 51.75 269.13 51.75ZM270.79 37.71C271.25 38.17 271.48 38.73 271.48 39.37C271.48 40.01 271.25 40.57 270.79 41.02C270.33 41.47 269.77 41.69 269.13 41.69C268.49 41.69 267.93 41.47 267.48 41.02C267.03 40.57 266.81 40.02 266.81 39.37C266.81 38.72 267.03 38.17 267.48 37.71C267.93 37.25 268.48 37.02 269.13 37.02C269.78 37.02 270.33 37.25 270.79 37.71ZM270.79 52.67C271.25 53.13 271.48 53.69 271.48 54.33C271.48 54.97 271.25 55.53 270.79 55.98C270.33 56.43 269.77 56.65 269.13 56.65C268.49 56.65 267.93 56.43 267.48 55.98C267.03 55.53 266.81 54.98 266.81 54.33C266.81 53.68 267.03 53.13 267.48 52.67C267.93 52.21 268.48 51.98 269.13 51.98C269.78 51.98 270.33 52.21 270.79 52.67ZM276.72 44.87C277.27 45.42 277.54 46.08 277.54 46.85C277.54 47.62 277.27 48.28 276.72 48.83C276.17 49.38 275.51 49.65 274.74 49.65C273.97 49.65 273.31 49.38 272.76 48.83C272.21 48.28 271.94 47.62 271.94 46.85C271.94 46.08 272.21 45.42 272.76 44.87C273.31 44.32 273.97 44.05 274.74 44.05C275.51 44.05 276.17 44.33 276.72 44.87ZM274.74 44.28C274.02 44.28 273.41 44.53 272.91 45.03C272.41 45.53 272.16 46.14 272.16 46.86C272.16 47.58 272.41 48.19 272.91 48.69C273.41 49.19 274.02 49.44 274.74 49.44C275.46 49.44 276.07 49.19 276.57 48.69C277.07 48.19 277.32 47.58 277.32 46.86C277.32 46.14 277.07 45.53 276.57 45.03C276.07 44.53 275.46 44.28 274.74 44.28ZM276.4 45.19C276.86 45.65 277.09 46.21 277.09 46.85C277.09 47.49 276.86 48.05 276.4 48.5C275.94 48.95 275.38 49.17 274.74 49.17C274.1 49.17 273.54 48.95 273.09 48.5C272.64 48.05 272.42 47.5 272.42 46.85C272.42 46.2 272.64 45.65 273.09 45.19C273.54 44.73 274.09 44.5 274.74 44.5C275.39 44.5 275.94 44.73 276.4 45.19ZM282.33 37.4C282.88 37.95 283.15 38.61 283.15 39.38C283.15 40.15 282.88 40.81 282.33 41.36C281.78 41.91 281.12 42.18 280.35 42.18C279.58 42.18 278.92 41.91 278.37 41.36C277.82 40.81 277.55 40.15 277.55 39.38C277.55 38.61 277.82 37.95 278.37 37.4C278.92 36.85 279.58 36.58 280.35 36.58C281.12 36.58 281.78 36.85 282.33 37.4ZM280.35 36.8C279.63 36.8 279.02 37.05 278.52 37.55C278.02 38.05 277.77 38.66 277.77 39.38C277.77 40.1 278.02 40.71 278.52 41.21C279.02 41.71 279.63 41.96 280.35 41.96C281.07 41.96 281.68 41.71 282.18 41.21C282.68 40.71 282.93 40.1 282.93 39.38C282.93 38.66 282.68 38.05 282.18 37.55C281.68 37.05 281.07 36.8 280.35 36.8ZM282.01 37.71C282.47 38.17 282.7 38.73 282.7 39.37C282.7 40.01 282.47 40.57 282.01 41.02C281.55 41.47 280.99 41.69 280.35 41.69C279.71 41.69 279.15 41.47 278.7 41.02C278.25 40.57 278.03 40.02 278.03 39.37C278.03 38.72 278.25 38.17 278.7 37.71C279.15 37.25 279.7 37.02 280.35 37.02C281 37.02 281.55 37.25 282.01 37.71ZM286.07 29.92C286.62 30.47 286.89 31.13 286.89 31.9C286.89 32.67 286.62 33.33 286.07 33.88C285.52 34.43 284.86 34.7 284.09 34.7C283.32 34.7 282.66 34.43 282.11 33.88C281.56 33.33 281.29 32.67 281.29 31.9C281.29 31.13 281.56 30.47 282.11 29.92C282.66 29.37 283.32 29.1 284.09 29.1C284.86 29.1 285.52 29.37 286.07 29.92ZM284.08 29.32C283.36 29.32 282.75 29.57 282.25 30.07C281.75 30.57 281.5 31.18 281.5 31.9C281.5 32.62 281.75 33.23 282.25 33.73C282.75 34.23 283.36 34.48 284.08 34.48C284.8 34.48 285.41 34.23 285.91 33.73C286.41 33.23 286.66 32.62 286.66 31.9C286.66 31.18 286.41 30.57 285.91 30.07C285.41 29.57 284.8 29.32 284.08 29.32ZM285.75 30.24C286.21 30.7 286.44 31.26 286.44 31.9C286.44 32.54 286.21 33.1 285.75 33.55C285.29 34 284.73 34.22 284.09 34.22C283.45 34.22 282.89 34 282.44 33.55C281.99 33.1 281.77 32.55 281.77 31.9C281.77 31.25 281.99 30.7 282.44 30.24C282.89 29.78 283.44 29.55 284.09 29.55C284.74 29.55 285.29 29.78 285.75 30.24ZM289.81 22.44C290.36 22.99 290.63 23.65 290.63 24.42C290.63 25.19 290.36 25.85 289.81 26.4C289.26 26.95 288.6 27.22 287.83 27.22C287.06 27.22 286.4 26.95 285.85 26.4C285.3 25.85 285.03 25.19 285.03 24.42C285.03 23.65 285.3 22.99 285.85 22.44C286.4 21.89 287.06 21.62 287.83 21.62C288.6 21.62 289.26 21.89 289.81 22.44ZM287.82 21.84C287.1 21.84 286.49 22.09 285.99 22.59C285.49 23.09 285.24 23.7 285.24 24.42C285.24 25.14 285.49 25.75 285.99 26.25C286.49 26.75 287.1 27 287.82 27C288.54 27 289.15 26.75 289.65 26.25C290.15 25.75 290.4 25.14 290.4 24.42C290.4 23.7 290.15 23.09 289.65 22.59C289.15 22.09 288.54 21.84 287.82 21.84ZM289.49 22.76C289.95 23.22 290.18 23.78 290.18 24.42C290.18 25.06 289.95 25.62 289.49 26.07C289.03 26.52 288.47 26.74 287.83 26.74C287.19 26.74 286.63 26.52 286.19 26.07C285.75 25.62 285.52 25.07 285.52 24.42C285.52 23.77 285.74 23.22 286.19 22.76C286.64 22.3 287.19 22.07 287.83 22.07C288.47 22.07 289.03 22.3 289.49 22.76ZM293.55 14.96C294.1 15.51 294.37 16.17 294.37 16.94C294.37 17.71 294.1 18.37 293.55 18.92C293 19.47 292.34 19.74 291.57 19.74C290.8 19.74 290.14 19.47 289.59 18.92C289.04 18.37 288.77 17.71 288.77 16.94C288.77 16.17 289.04 15.51 289.59 14.96C290.14 14.41 290.8 14.14 291.57 14.14C292.34 14.14 293 14.41 293.55 14.96ZM291.56 14.36C290.84 14.36 290.23 14.61 289.73 15.11C289.23 15.61 288.98 16.22 288.98 16.94C288.98 17.66 289.23 18.27 289.73 18.77C290.23 19.27 290.84 19.52 291.56 19.52C292.28 19.52 292.89 19.27 293.39 18.77C293.89 18.27 294.14 17.66 294.14 16.94C294.14 16.22 293.89 15.61 293.39 15.11C292.89 14.61 292.28 14.36 291.56 14.36ZM293.23 15.28C293.69 15.74 293.92 16.3 293.92 16.94C293.92 17.58 293.69 18.14 293.23 18.58C292.77 19.03 292.21 19.25 291.57 19.25C290.93 19.25 290.37 19.03 289.93 18.58C289.48 18.13 289.26 17.58 289.26 16.94C289.26 16.3 289.48 15.74 289.93 15.28C290.38 14.82 290.93 14.59 291.57 14.59C292.21 14.59 292.77 14.82 293.23 15.28Z" fill="#EE4E9C"/>
</g>
<defs>
<clipPath id="clip0_1_320">
<rect width="475.49" height="129.57" fill="white"/>
</clipPath>
</defs>
</svg>
